<svg xmlns="http://www.w3.org/2000/svg" xmlns:xlink="http://www.w3.org/1999/xlink" width="866" height="108" viewBox="0 0 866 108">
  <defs>
    <clipPath id="clip-path">
      <rect id="Rectangle_6801" data-name="Rectangle 6801" width="866" height="108" transform="translate(1054 5628)" fill="#b42220"/>
    </clipPath>
    <clipPath id="clip-path-2">
      <rect width="944" height="153.852" fill="none"/>
    </clipPath>
  </defs>
  <g id="Mask_Group_6" data-name="Mask Group 6" transform="translate(-1054 -5628)" clip-path="url(#clip-path)">
    <rect id="Rectangle_6800" data-name="Rectangle 6800" width="866" height="108" transform="translate(1054 5628)" fill="#b42220"/>
    <g id="Repeat_Grid_1" data-name="Repeat Grid 1" transform="translate(1009.838 5599.574)" clip-path="url(#clip-path-2)">
      <g transform="translate(-1009.838 -5599.574)">
        <line id="Line_2" data-name="Line 2" y2="200" transform="translate(1010.221 5599.896) rotate(-40)" fill="none" stroke="#fff" stroke-width="1" opacity="0.1"/>
      </g>
      <g transform="translate(-1003.838 -5599.574)">
        <line id="Line_2-2" data-name="Line 2" y2="200" transform="translate(1010.221 5599.896) rotate(-40)" fill="none" stroke="#fff" stroke-width="1" opacity="0.1"/>
      </g>
      <g transform="translate(-997.838 -5599.574)">
        <line id="Line_2-3" data-name="Line 2" y2="200" transform="translate(1010.221 5599.896) rotate(-40)" fill="none" stroke="#fff" stroke-width="1" opacity="0.1"/>
      </g>
      <g transform="translate(-991.838 -5599.574)">
        <line id="Line_2-4" data-name="Line 2" y2="200" transform="translate(1010.221 5599.896) rotate(-40)" fill="none" stroke="#fff" stroke-width="1" opacity="0.1"/>
      </g>
      <g transform="translate(-985.838 -5599.574)">
        <line id="Line_2-5" data-name="Line 2" y2="200" transform="translate(1010.221 5599.896) rotate(-40)" fill="none" stroke="#fff" stroke-width="1" opacity="0.1"/>
      </g>
      <g transform="translate(-979.838 -5599.574)">
        <line id="Line_2-6" data-name="Line 2" y2="200" transform="translate(1010.221 5599.896) rotate(-40)" fill="none" stroke="#fff" stroke-width="1" opacity="0.1"/>
      </g>
      <g transform="translate(-973.838 -5599.574)">
        <line id="Line_2-7" data-name="Line 2" y2="200" transform="translate(1010.221 5599.896) rotate(-40)" fill="none" stroke="#fff" stroke-width="1" opacity="0.1"/>
      </g>
      <g transform="translate(-967.838 -5599.574)">
        <line id="Line_2-8" data-name="Line 2" y2="200" transform="translate(1010.221 5599.896) rotate(-40)" fill="none" stroke="#fff" stroke-width="1" opacity="0.1"/>
      </g>
      <g transform="translate(-961.838 -5599.574)">
        <line id="Line_2-9" data-name="Line 2" y2="200" transform="translate(1010.221 5599.896) rotate(-40)" fill="none" stroke="#fff" stroke-width="1" opacity="0.1"/>
      </g>
      <g transform="translate(-955.838 -5599.574)">
        <line id="Line_2-10" data-name="Line 2" y2="200" transform="translate(1010.221 5599.896) rotate(-40)" fill="none" stroke="#fff" stroke-width="1" opacity="0.1"/>
      </g>
      <g transform="translate(-949.838 -5599.574)">
        <line id="Line_2-11" data-name="Line 2" y2="200" transform="translate(1010.221 5599.896) rotate(-40)" fill="none" stroke="#fff" stroke-width="1" opacity="0.1"/>
      </g>
      <g transform="translate(-943.838 -5599.574)">
        <line id="Line_2-12" data-name="Line 2" y2="200" transform="translate(1010.221 5599.896) rotate(-40)" fill="none" stroke="#fff" stroke-width="1" opacity="0.1"/>
      </g>
      <g transform="translate(-937.838 -5599.574)">
        <line id="Line_2-13" data-name="Line 2" y2="200" transform="translate(1010.221 5599.896) rotate(-40)" fill="none" stroke="#fff" stroke-width="1" opacity="0.1"/>
      </g>
      <g transform="translate(-931.838 -5599.574)">
        <line id="Line_2-14" data-name="Line 2" y2="200" transform="translate(1010.221 5599.896) rotate(-40)" fill="none" stroke="#fff" stroke-width="1" opacity="0.1"/>
      </g>
      <g transform="translate(-925.838 -5599.574)">
        <line id="Line_2-15" data-name="Line 2" y2="200" transform="translate(1010.221 5599.896) rotate(-40)" fill="none" stroke="#fff" stroke-width="1" opacity="0.1"/>
      </g>
      <g transform="translate(-919.838 -5599.574)">
        <line id="Line_2-16" data-name="Line 2" y2="200" transform="translate(1010.221 5599.896) rotate(-40)" fill="none" stroke="#fff" stroke-width="1" opacity="0.1"/>
      </g>
      <g transform="translate(-913.838 -5599.574)">
        <line id="Line_2-17" data-name="Line 2" y2="200" transform="translate(1010.221 5599.896) rotate(-40)" fill="none" stroke="#fff" stroke-width="1" opacity="0.1"/>
      </g>
      <g transform="translate(-907.838 -5599.574)">
        <line id="Line_2-18" data-name="Line 2" y2="200" transform="translate(1010.221 5599.896) rotate(-40)" fill="none" stroke="#fff" stroke-width="1" opacity="0.1"/>
      </g>
      <g transform="translate(-901.838 -5599.574)">
        <line id="Line_2-19" data-name="Line 2" y2="200" transform="translate(1010.221 5599.896) rotate(-40)" fill="none" stroke="#fff" stroke-width="1" opacity="0.1"/>
      </g>
      <g transform="translate(-895.838 -5599.574)">
        <line id="Line_2-20" data-name="Line 2" y2="200" transform="translate(1010.221 5599.896) rotate(-40)" fill="none" stroke="#fff" stroke-width="1" opacity="0.1"/>
      </g>
      <g transform="translate(-889.838 -5599.574)">
        <line id="Line_2-21" data-name="Line 2" y2="200" transform="translate(1010.221 5599.896) rotate(-40)" fill="none" stroke="#fff" stroke-width="1" opacity="0.1"/>
      </g>
      <g transform="translate(-883.838 -5599.574)">
        <line id="Line_2-22" data-name="Line 2" y2="200" transform="translate(1010.221 5599.896) rotate(-40)" fill="none" stroke="#fff" stroke-width="1" opacity="0.1"/>
      </g>
      <g transform="translate(-877.838 -5599.574)">
        <line id="Line_2-23" data-name="Line 2" y2="200" transform="translate(1010.221 5599.896) rotate(-40)" fill="none" stroke="#fff" stroke-width="1" opacity="0.1"/>
      </g>
      <g transform="translate(-871.838 -5599.574)">
        <line id="Line_2-24" data-name="Line 2" y2="200" transform="translate(1010.221 5599.896) rotate(-40)" fill="none" stroke="#fff" stroke-width="1" opacity="0.1"/>
      </g>
      <g transform="translate(-865.838 -5599.574)">
        <line id="Line_2-25" data-name="Line 2" y2="200" transform="translate(1010.221 5599.896) rotate(-40)" fill="none" stroke="#fff" stroke-width="1" opacity="0.1"/>
      </g>
      <g transform="translate(-859.838 -5599.574)">
        <line id="Line_2-26" data-name="Line 2" y2="200" transform="translate(1010.221 5599.896) rotate(-40)" fill="none" stroke="#fff" stroke-width="1" opacity="0.1"/>
      </g>
      <g transform="translate(-853.838 -5599.574)">
        <line id="Line_2-27" data-name="Line 2" y2="200" transform="translate(1010.221 5599.896) rotate(-40)" fill="none" stroke="#fff" stroke-width="1" opacity="0.1"/>
      </g>
      <g transform="translate(-847.838 -5599.574)">
        <line id="Line_2-28" data-name="Line 2" y2="200" transform="translate(1010.221 5599.896) rotate(-40)" fill="none" stroke="#fff" stroke-width="1" opacity="0.1"/>
      </g>
      <g transform="translate(-841.838 -5599.574)">
        <line id="Line_2-29" data-name="Line 2" y2="200" transform="translate(1010.221 5599.896) rotate(-40)" fill="none" stroke="#fff" stroke-width="1" opacity="0.1"/>
      </g>
      <g transform="translate(-835.838 -5599.574)">
        <line id="Line_2-30" data-name="Line 2" y2="200" transform="translate(1010.221 5599.896) rotate(-40)" fill="none" stroke="#fff" stroke-width="1" opacity="0.1"/>
      </g>
      <g transform="translate(-829.838 -5599.574)">
        <line id="Line_2-31" data-name="Line 2" y2="200" transform="translate(1010.221 5599.896) rotate(-40)" fill="none" stroke="#fff" stroke-width="1" opacity="0.1"/>
      </g>
      <g transform="translate(-823.838 -5599.574)">
        <line id="Line_2-32" data-name="Line 2" y2="200" transform="translate(1010.221 5599.896) rotate(-40)" fill="none" stroke="#fff" stroke-width="1" opacity="0.1"/>
      </g>
      <g transform="translate(-817.838 -5599.574)">
        <line id="Line_2-33" data-name="Line 2" y2="200" transform="translate(1010.221 5599.896) rotate(-40)" fill="none" stroke="#fff" stroke-width="1" opacity="0.1"/>
      </g>
      <g transform="translate(-811.838 -5599.574)">
        <line id="Line_2-34" data-name="Line 2" y2="200" transform="translate(1010.221 5599.896) rotate(-40)" fill="none" stroke="#fff" stroke-width="1" opacity="0.1"/>
      </g>
      <g transform="translate(-805.838 -5599.574)">
        <line id="Line_2-35" data-name="Line 2" y2="200" transform="translate(1010.221 5599.896) rotate(-40)" fill="none" stroke="#fff" stroke-width="1" opacity="0.1"/>
      </g>
      <g transform="translate(-799.838 -5599.574)">
        <line id="Line_2-36" data-name="Line 2" y2="200" transform="translate(1010.221 5599.896) rotate(-40)" fill="none" stroke="#fff" stroke-width="1" opacity="0.1"/>
      </g>
      <g transform="translate(-793.838 -5599.574)">
        <line id="Line_2-37" data-name="Line 2" y2="200" transform="translate(1010.221 5599.896) rotate(-40)" fill="none" stroke="#fff" stroke-width="1" opacity="0.1"/>
      </g>
      <g transform="translate(-787.838 -5599.574)">
        <line id="Line_2-38" data-name="Line 2" y2="200" transform="translate(1010.221 5599.896) rotate(-40)" fill="none" stroke="#fff" stroke-width="1" opacity="0.1"/>
      </g>
      <g transform="translate(-781.838 -5599.574)">
        <line id="Line_2-39" data-name="Line 2" y2="200" transform="translate(1010.221 5599.896) rotate(-40)" fill="none" stroke="#fff" stroke-width="1" opacity="0.1"/>
      </g>
      <g transform="translate(-775.838 -5599.574)">
        <line id="Line_2-40" data-name="Line 2" y2="200" transform="translate(1010.221 5599.896) rotate(-40)" fill="none" stroke="#fff" stroke-width="1" opacity="0.1"/>
      </g>
      <g transform="translate(-769.838 -5599.574)">
        <line id="Line_2-41" data-name="Line 2" y2="200" transform="translate(1010.221 5599.896) rotate(-40)" fill="none" stroke="#fff" stroke-width="1" opacity="0.1"/>
      </g>
      <g transform="translate(-763.838 -5599.574)">
        <line id="Line_2-42" data-name="Line 2" y2="200" transform="translate(1010.221 5599.896) rotate(-40)" fill="none" stroke="#fff" stroke-width="1" opacity="0.1"/>
      </g>
      <g transform="translate(-757.838 -5599.574)">
        <line id="Line_2-43" data-name="Line 2" y2="200" transform="translate(1010.221 5599.896) rotate(-40)" fill="none" stroke="#fff" stroke-width="1" opacity="0.1"/>
      </g>
      <g transform="translate(-751.838 -5599.574)">
        <line id="Line_2-44" data-name="Line 2" y2="200" transform="translate(1010.221 5599.896) rotate(-40)" fill="none" stroke="#fff" stroke-width="1" opacity="0.1"/>
      </g>
      <g transform="translate(-745.838 -5599.574)">
        <line id="Line_2-45" data-name="Line 2" y2="200" transform="translate(1010.221 5599.896) rotate(-40)" fill="none" stroke="#fff" stroke-width="1" opacity="0.1"/>
      </g>
      <g transform="translate(-739.838 -5599.574)">
        <line id="Line_2-46" data-name="Line 2" y2="200" transform="translate(1010.221 5599.896) rotate(-40)" fill="none" stroke="#fff" stroke-width="1" opacity="0.1"/>
      </g>
      <g transform="translate(-733.838 -5599.574)">
        <line id="Line_2-47" data-name="Line 2" y2="200" transform="translate(1010.221 5599.896) rotate(-40)" fill="none" stroke="#fff" stroke-width="1" opacity="0.1"/>
      </g>
      <g transform="translate(-727.838 -5599.574)">
        <line id="Line_2-48" data-name="Line 2" y2="200" transform="translate(1010.221 5599.896) rotate(-40)" fill="none" stroke="#fff" stroke-width="1" opacity="0.1"/>
      </g>
      <g transform="translate(-721.838 -5599.574)">
        <line id="Line_2-49" data-name="Line 2" y2="200" transform="translate(1010.221 5599.896) rotate(-40)" fill="none" stroke="#fff" stroke-width="1" opacity="0.1"/>
      </g>
      <g transform="translate(-715.838 -5599.574)">
        <line id="Line_2-50" data-name="Line 2" y2="200" transform="translate(1010.221 5599.896) rotate(-40)" fill="none" stroke="#fff" stroke-width="1" opacity="0.1"/>
      </g>
      <g transform="translate(-709.838 -5599.574)">
        <line id="Line_2-51" data-name="Line 2" y2="200" transform="translate(1010.221 5599.896) rotate(-40)" fill="none" stroke="#fff" stroke-width="1" opacity="0.1"/>
      </g>
      <g transform="translate(-703.838 -5599.574)">
        <line id="Line_2-52" data-name="Line 2" y2="200" transform="translate(1010.221 5599.896) rotate(-40)" fill="none" stroke="#fff" stroke-width="1" opacity="0.1"/>
      </g>
      <g transform="translate(-697.838 -5599.574)">
        <line id="Line_2-53" data-name="Line 2" y2="200" transform="translate(1010.221 5599.896) rotate(-40)" fill="none" stroke="#fff" stroke-width="1" opacity="0.1"/>
      </g>
      <g transform="translate(-691.838 -5599.574)">
        <line id="Line_2-54" data-name="Line 2" y2="200" transform="translate(1010.221 5599.896) rotate(-40)" fill="none" stroke="#fff" stroke-width="1" opacity="0.1"/>
      </g>
      <g transform="translate(-685.838 -5599.574)">
        <line id="Line_2-55" data-name="Line 2" y2="200" transform="translate(1010.221 5599.896) rotate(-40)" fill="none" stroke="#fff" stroke-width="1" opacity="0.1"/>
      </g>
      <g transform="translate(-679.838 -5599.574)">
        <line id="Line_2-56" data-name="Line 2" y2="200" transform="translate(1010.221 5599.896) rotate(-40)" fill="none" stroke="#fff" stroke-width="1" opacity="0.1"/>
      </g>
      <g transform="translate(-673.838 -5599.574)">
        <line id="Line_2-57" data-name="Line 2" y2="200" transform="translate(1010.221 5599.896) rotate(-40)" fill="none" stroke="#fff" stroke-width="1" opacity="0.1"/>
      </g>
      <g transform="translate(-667.838 -5599.574)">
        <line id="Line_2-58" data-name="Line 2" y2="200" transform="translate(1010.221 5599.896) rotate(-40)" fill="none" stroke="#fff" stroke-width="1" opacity="0.1"/>
      </g>
      <g transform="translate(-661.838 -5599.574)">
        <line id="Line_2-59" data-name="Line 2" y2="200" transform="translate(1010.221 5599.896) rotate(-40)" fill="none" stroke="#fff" stroke-width="1" opacity="0.1"/>
      </g>
      <g transform="translate(-655.838 -5599.574)">
        <line id="Line_2-60" data-name="Line 2" y2="200" transform="translate(1010.221 5599.896) rotate(-40)" fill="none" stroke="#fff" stroke-width="1" opacity="0.1"/>
      </g>
      <g transform="translate(-649.838 -5599.574)">
        <line id="Line_2-61" data-name="Line 2" y2="200" transform="translate(1010.221 5599.896) rotate(-40)" fill="none" stroke="#fff" stroke-width="1" opacity="0.1"/>
      </g>
      <g transform="translate(-643.838 -5599.574)">
        <line id="Line_2-62" data-name="Line 2" y2="200" transform="translate(1010.221 5599.896) rotate(-40)" fill="none" stroke="#fff" stroke-width="1" opacity="0.1"/>
      </g>
      <g transform="translate(-637.838 -5599.574)">
        <line id="Line_2-63" data-name="Line 2" y2="200" transform="translate(1010.221 5599.896) rotate(-40)" fill="none" stroke="#fff" stroke-width="1" opacity="0.1"/>
      </g>
      <g transform="translate(-631.838 -5599.574)">
        <line id="Line_2-64" data-name="Line 2" y2="200" transform="translate(1010.221 5599.896) rotate(-40)" fill="none" stroke="#fff" stroke-width="1" opacity="0.1"/>
      </g>
      <g transform="translate(-625.838 -5599.574)">
        <line id="Line_2-65" data-name="Line 2" y2="200" transform="translate(1010.221 5599.896) rotate(-40)" fill="none" stroke="#fff" stroke-width="1" opacity="0.1"/>
      </g>
      <g transform="translate(-619.838 -5599.574)">
        <line id="Line_2-66" data-name="Line 2" y2="200" transform="translate(1010.221 5599.896) rotate(-40)" fill="none" stroke="#fff" stroke-width="1" opacity="0.1"/>
      </g>
      <g transform="translate(-613.838 -5599.574)">
        <line id="Line_2-67" data-name="Line 2" y2="200" transform="translate(1010.221 5599.896) rotate(-40)" fill="none" stroke="#fff" stroke-width="1" opacity="0.1"/>
      </g>
      <g transform="translate(-607.838 -5599.574)">
        <line id="Line_2-68" data-name="Line 2" y2="200" transform="translate(1010.221 5599.896) rotate(-40)" fill="none" stroke="#fff" stroke-width="1" opacity="0.1"/>
      </g>
      <g transform="translate(-601.838 -5599.574)">
        <line id="Line_2-69" data-name="Line 2" y2="200" transform="translate(1010.221 5599.896) rotate(-40)" fill="none" stroke="#fff" stroke-width="1" opacity="0.1"/>
      </g>
      <g transform="translate(-595.838 -5599.574)">
        <line id="Line_2-70" data-name="Line 2" y2="200" transform="translate(1010.221 5599.896) rotate(-40)" fill="none" stroke="#fff" stroke-width="1" opacity="0.1"/>
      </g>
      <g transform="translate(-589.838 -5599.574)">
        <line id="Line_2-71" data-name="Line 2" y2="200" transform="translate(1010.221 5599.896) rotate(-40)" fill="none" stroke="#fff" stroke-width="1" opacity="0.1"/>
      </g>
      <g transform="translate(-583.838 -5599.574)">
        <line id="Line_2-72" data-name="Line 2" y2="200" transform="translate(1010.221 5599.896) rotate(-40)" fill="none" stroke="#fff" stroke-width="1" opacity="0.1"/>
      </g>
      <g transform="translate(-577.838 -5599.574)">
        <line id="Line_2-73" data-name="Line 2" y2="200" transform="translate(1010.221 5599.896) rotate(-40)" fill="none" stroke="#fff" stroke-width="1" opacity="0.1"/>
      </g>
      <g transform="translate(-571.838 -5599.574)">
        <line id="Line_2-74" data-name="Line 2" y2="200" transform="translate(1010.221 5599.896) rotate(-40)" fill="none" stroke="#fff" stroke-width="1" opacity="0.1"/>
      </g>
      <g transform="translate(-565.838 -5599.574)">
        <line id="Line_2-75" data-name="Line 2" y2="200" transform="translate(1010.221 5599.896) rotate(-40)" fill="none" stroke="#fff" stroke-width="1" opacity="0.1"/>
      </g>
      <g transform="translate(-559.838 -5599.574)">
        <line id="Line_2-76" data-name="Line 2" y2="200" transform="translate(1010.221 5599.896) rotate(-40)" fill="none" stroke="#fff" stroke-width="1" opacity="0.1"/>
      </g>
      <g transform="translate(-553.838 -5599.574)">
        <line id="Line_2-77" data-name="Line 2" y2="200" transform="translate(1010.221 5599.896) rotate(-40)" fill="none" stroke="#fff" stroke-width="1" opacity="0.1"/>
      </g>
      <g transform="translate(-547.838 -5599.574)">
        <line id="Line_2-78" data-name="Line 2" y2="200" transform="translate(1010.221 5599.896) rotate(-40)" fill="none" stroke="#fff" stroke-width="1" opacity="0.1"/>
      </g>
      <g transform="translate(-541.838 -5599.574)">
        <line id="Line_2-79" data-name="Line 2" y2="200" transform="translate(1010.221 5599.896) rotate(-40)" fill="none" stroke="#fff" stroke-width="1" opacity="0.1"/>
      </g>
      <g transform="translate(-535.838 -5599.574)">
        <line id="Line_2-80" data-name="Line 2" y2="200" transform="translate(1010.221 5599.896) rotate(-40)" fill="none" stroke="#fff" stroke-width="1" opacity="0.1"/>
      </g>
      <g transform="translate(-529.838 -5599.574)">
        <line id="Line_2-81" data-name="Line 2" y2="200" transform="translate(1010.221 5599.896) rotate(-40)" fill="none" stroke="#fff" stroke-width="1" opacity="0.1"/>
      </g>
      <g transform="translate(-523.838 -5599.574)">
        <line id="Line_2-82" data-name="Line 2" y2="200" transform="translate(1010.221 5599.896) rotate(-40)" fill="none" stroke="#fff" stroke-width="1" opacity="0.1"/>
      </g>
      <g transform="translate(-517.838 -5599.574)">
        <line id="Line_2-83" data-name="Line 2" y2="200" transform="translate(1010.221 5599.896) rotate(-40)" fill="none" stroke="#fff" stroke-width="1" opacity="0.1"/>
      </g>
      <g transform="translate(-511.838 -5599.574)">
        <line id="Line_2-84" data-name="Line 2" y2="200" transform="translate(1010.221 5599.896) rotate(-40)" fill="none" stroke="#fff" stroke-width="1" opacity="0.1"/>
      </g>
      <g transform="translate(-505.838 -5599.574)">
        <line id="Line_2-85" data-name="Line 2" y2="200" transform="translate(1010.221 5599.896) rotate(-40)" fill="none" stroke="#fff" stroke-width="1" opacity="0.1"/>
      </g>
      <g transform="translate(-499.838 -5599.574)">
        <line id="Line_2-86" data-name="Line 2" y2="200" transform="translate(1010.221 5599.896) rotate(-40)" fill="none" stroke="#fff" stroke-width="1" opacity="0.1"/>
      </g>
      <g transform="translate(-493.838 -5599.574)">
        <line id="Line_2-87" data-name="Line 2" y2="200" transform="translate(1010.221 5599.896) rotate(-40)" fill="none" stroke="#fff" stroke-width="1" opacity="0.1"/>
      </g>
      <g transform="translate(-487.838 -5599.574)">
        <line id="Line_2-88" data-name="Line 2" y2="200" transform="translate(1010.221 5599.896) rotate(-40)" fill="none" stroke="#fff" stroke-width="1" opacity="0.1"/>
      </g>
      <g transform="translate(-481.838 -5599.574)">
        <line id="Line_2-89" data-name="Line 2" y2="200" transform="translate(1010.221 5599.896) rotate(-40)" fill="none" stroke="#fff" stroke-width="1" opacity="0.1"/>
      </g>
      <g transform="translate(-475.838 -5599.574)">
        <line id="Line_2-90" data-name="Line 2" y2="200" transform="translate(1010.221 5599.896) rotate(-40)" fill="none" stroke="#fff" stroke-width="1" opacity="0.1"/>
      </g>
      <g transform="translate(-469.838 -5599.574)">
        <line id="Line_2-91" data-name="Line 2" y2="200" transform="translate(1010.221 5599.896) rotate(-40)" fill="none" stroke="#fff" stroke-width="1" opacity="0.1"/>
      </g>
      <g transform="translate(-463.838 -5599.574)">
        <line id="Line_2-92" data-name="Line 2" y2="200" transform="translate(1010.221 5599.896) rotate(-40)" fill="none" stroke="#fff" stroke-width="1" opacity="0.1"/>
      </g>
      <g transform="translate(-457.838 -5599.574)">
        <line id="Line_2-93" data-name="Line 2" y2="200" transform="translate(1010.221 5599.896) rotate(-40)" fill="none" stroke="#fff" stroke-width="1" opacity="0.1"/>
      </g>
      <g transform="translate(-451.838 -5599.574)">
        <line id="Line_2-94" data-name="Line 2" y2="200" transform="translate(1010.221 5599.896) rotate(-40)" fill="none" stroke="#fff" stroke-width="1" opacity="0.1"/>
      </g>
      <g transform="translate(-445.838 -5599.574)">
        <line id="Line_2-95" data-name="Line 2" y2="200" transform="translate(1010.221 5599.896) rotate(-40)" fill="none" stroke="#fff" stroke-width="1" opacity="0.1"/>
      </g>
      <g transform="translate(-439.838 -5599.574)">
        <line id="Line_2-96" data-name="Line 2" y2="200" transform="translate(1010.221 5599.896) rotate(-40)" fill="none" stroke="#fff" stroke-width="1" opacity="0.1"/>
      </g>
      <g transform="translate(-433.838 -5599.574)">
        <line id="Line_2-97" data-name="Line 2" y2="200" transform="translate(1010.221 5599.896) rotate(-40)" fill="none" stroke="#fff" stroke-width="1" opacity="0.1"/>
      </g>
      <g transform="translate(-427.838 -5599.574)">
        <line id="Line_2-98" data-name="Line 2" y2="200" transform="translate(1010.221 5599.896) rotate(-40)" fill="none" stroke="#fff" stroke-width="1" opacity="0.1"/>
      </g>
      <g transform="translate(-421.838 -5599.574)">
        <line id="Line_2-99" data-name="Line 2" y2="200" transform="translate(1010.221 5599.896) rotate(-40)" fill="none" stroke="#fff" stroke-width="1" opacity="0.1"/>
      </g>
      <g transform="translate(-415.838 -5599.574)">
        <line id="Line_2-100" data-name="Line 2" y2="200" transform="translate(1010.221 5599.896) rotate(-40)" fill="none" stroke="#fff" stroke-width="1" opacity="0.1"/>
      </g>
      <g transform="translate(-409.838 -5599.574)">
        <line id="Line_2-101" data-name="Line 2" y2="200" transform="translate(1010.221 5599.896) rotate(-40)" fill="none" stroke="#fff" stroke-width="1" opacity="0.1"/>
      </g>
      <g transform="translate(-403.838 -5599.574)">
        <line id="Line_2-102" data-name="Line 2" y2="200" transform="translate(1010.221 5599.896) rotate(-40)" fill="none" stroke="#fff" stroke-width="1" opacity="0.1"/>
      </g>
      <g transform="translate(-397.838 -5599.574)">
        <line id="Line_2-103" data-name="Line 2" y2="200" transform="translate(1010.221 5599.896) rotate(-40)" fill="none" stroke="#fff" stroke-width="1" opacity="0.1"/>
      </g>
      <g transform="translate(-391.838 -5599.574)">
        <line id="Line_2-104" data-name="Line 2" y2="200" transform="translate(1010.221 5599.896) rotate(-40)" fill="none" stroke="#fff" stroke-width="1" opacity="0.1"/>
      </g>
      <g transform="translate(-385.838 -5599.574)">
        <line id="Line_2-105" data-name="Line 2" y2="200" transform="translate(1010.221 5599.896) rotate(-40)" fill="none" stroke="#fff" stroke-width="1" opacity="0.1"/>
      </g>
      <g transform="translate(-379.838 -5599.574)">
        <line id="Line_2-106" data-name="Line 2" y2="200" transform="translate(1010.221 5599.896) rotate(-40)" fill="none" stroke="#fff" stroke-width="1" opacity="0.1"/>
      </g>
      <g transform="translate(-373.838 -5599.574)">
        <line id="Line_2-107" data-name="Line 2" y2="200" transform="translate(1010.221 5599.896) rotate(-40)" fill="none" stroke="#fff" stroke-width="1" opacity="0.1"/>
      </g>
      <g transform="translate(-367.838 -5599.574)">
        <line id="Line_2-108" data-name="Line 2" y2="200" transform="translate(1010.221 5599.896) rotate(-40)" fill="none" stroke="#fff" stroke-width="1" opacity="0.1"/>
      </g>
      <g transform="translate(-361.838 -5599.574)">
        <line id="Line_2-109" data-name="Line 2" y2="200" transform="translate(1010.221 5599.896) rotate(-40)" fill="none" stroke="#fff" stroke-width="1" opacity="0.1"/>
      </g>
      <g transform="translate(-355.838 -5599.574)">
        <line id="Line_2-110" data-name="Line 2" y2="200" transform="translate(1010.221 5599.896) rotate(-40)" fill="none" stroke="#fff" stroke-width="1" opacity="0.1"/>
      </g>
      <g transform="translate(-349.838 -5599.574)">
        <line id="Line_2-111" data-name="Line 2" y2="200" transform="translate(1010.221 5599.896) rotate(-40)" fill="none" stroke="#fff" stroke-width="1" opacity="0.1"/>
      </g>
      <g transform="translate(-343.838 -5599.574)">
        <line id="Line_2-112" data-name="Line 2" y2="200" transform="translate(1010.221 5599.896) rotate(-40)" fill="none" stroke="#fff" stroke-width="1" opacity="0.1"/>
      </g>
      <g transform="translate(-337.838 -5599.574)">
        <line id="Line_2-113" data-name="Line 2" y2="200" transform="translate(1010.221 5599.896) rotate(-40)" fill="none" stroke="#fff" stroke-width="1" opacity="0.1"/>
      </g>
      <g transform="translate(-331.838 -5599.574)">
        <line id="Line_2-114" data-name="Line 2" y2="200" transform="translate(1010.221 5599.896) rotate(-40)" fill="none" stroke="#fff" stroke-width="1" opacity="0.1"/>
      </g>
      <g transform="translate(-325.838 -5599.574)">
        <line id="Line_2-115" data-name="Line 2" y2="200" transform="translate(1010.221 5599.896) rotate(-40)" fill="none" stroke="#fff" stroke-width="1" opacity="0.1"/>
      </g>
      <g transform="translate(-319.838 -5599.574)">
        <line id="Line_2-116" data-name="Line 2" y2="200" transform="translate(1010.221 5599.896) rotate(-40)" fill="none" stroke="#fff" stroke-width="1" opacity="0.1"/>
      </g>
      <g transform="translate(-313.838 -5599.574)">
        <line id="Line_2-117" data-name="Line 2" y2="200" transform="translate(1010.221 5599.896) rotate(-40)" fill="none" stroke="#fff" stroke-width="1" opacity="0.1"/>
      </g>
      <g transform="translate(-307.838 -5599.574)">
        <line id="Line_2-118" data-name="Line 2" y2="200" transform="translate(1010.221 5599.896) rotate(-40)" fill="none" stroke="#fff" stroke-width="1" opacity="0.1"/>
      </g>
      <g transform="translate(-301.838 -5599.574)">
        <line id="Line_2-119" data-name="Line 2" y2="200" transform="translate(1010.221 5599.896) rotate(-40)" fill="none" stroke="#fff" stroke-width="1" opacity="0.1"/>
      </g>
      <g transform="translate(-295.838 -5599.574)">
        <line id="Line_2-120" data-name="Line 2" y2="200" transform="translate(1010.221 5599.896) rotate(-40)" fill="none" stroke="#fff" stroke-width="1" opacity="0.1"/>
      </g>
      <g transform="translate(-289.838 -5599.574)">
        <line id="Line_2-121" data-name="Line 2" y2="200" transform="translate(1010.221 5599.896) rotate(-40)" fill="none" stroke="#fff" stroke-width="1" opacity="0.1"/>
      </g>
      <g transform="translate(-283.838 -5599.574)">
        <line id="Line_2-122" data-name="Line 2" y2="200" transform="translate(1010.221 5599.896) rotate(-40)" fill="none" stroke="#fff" stroke-width="1" opacity="0.1"/>
      </g>
      <g transform="translate(-277.838 -5599.574)">
        <line id="Line_2-123" data-name="Line 2" y2="200" transform="translate(1010.221 5599.896) rotate(-40)" fill="none" stroke="#fff" stroke-width="1" opacity="0.1"/>
      </g>
      <g transform="translate(-271.838 -5599.574)">
        <line id="Line_2-124" data-name="Line 2" y2="200" transform="translate(1010.221 5599.896) rotate(-40)" fill="none" stroke="#fff" stroke-width="1" opacity="0.1"/>
      </g>
      <g transform="translate(-265.838 -5599.574)">
        <line id="Line_2-125" data-name="Line 2" y2="200" transform="translate(1010.221 5599.896) rotate(-40)" fill="none" stroke="#fff" stroke-width="1" opacity="0.1"/>
      </g>
      <g transform="translate(-259.838 -5599.574)">
        <line id="Line_2-126" data-name="Line 2" y2="200" transform="translate(1010.221 5599.896) rotate(-40)" fill="none" stroke="#fff" stroke-width="1" opacity="0.1"/>
      </g>
      <g transform="translate(-253.838 -5599.574)">
        <line id="Line_2-127" data-name="Line 2" y2="200" transform="translate(1010.221 5599.896) rotate(-40)" fill="none" stroke="#fff" stroke-width="1" opacity="0.1"/>
      </g>
      <g transform="translate(-247.838 -5599.574)">
        <line id="Line_2-128" data-name="Line 2" y2="200" transform="translate(1010.221 5599.896) rotate(-40)" fill="none" stroke="#fff" stroke-width="1" opacity="0.1"/>
      </g>
      <g transform="translate(-241.838 -5599.574)">
        <line id="Line_2-129" data-name="Line 2" y2="200" transform="translate(1010.221 5599.896) rotate(-40)" fill="none" stroke="#fff" stroke-width="1" opacity="0.1"/>
      </g>
      <g transform="translate(-235.838 -5599.574)">
        <line id="Line_2-130" data-name="Line 2" y2="200" transform="translate(1010.221 5599.896) rotate(-40)" fill="none" stroke="#fff" stroke-width="1" opacity="0.1"/>
      </g>
      <g transform="translate(-229.838 -5599.574)">
        <line id="Line_2-131" data-name="Line 2" y2="200" transform="translate(1010.221 5599.896) rotate(-40)" fill="none" stroke="#fff" stroke-width="1" opacity="0.1"/>
      </g>
      <g transform="translate(-223.838 -5599.574)">
        <line id="Line_2-132" data-name="Line 2" y2="200" transform="translate(1010.221 5599.896) rotate(-40)" fill="none" stroke="#fff" stroke-width="1" opacity="0.1"/>
      </g>
      <g transform="translate(-217.838 -5599.574)">
        <line id="Line_2-133" data-name="Line 2" y2="200" transform="translate(1010.221 5599.896) rotate(-40)" fill="none" stroke="#fff" stroke-width="1" opacity="0.1"/>
      </g>
      <g transform="translate(-211.838 -5599.574)">
        <line id="Line_2-134" data-name="Line 2" y2="200" transform="translate(1010.221 5599.896) rotate(-40)" fill="none" stroke="#fff" stroke-width="1" opacity="0.1"/>
      </g>
      <g transform="translate(-205.838 -5599.574)">
        <line id="Line_2-135" data-name="Line 2" y2="200" transform="translate(1010.221 5599.896) rotate(-40)" fill="none" stroke="#fff" stroke-width="1" opacity="0.1"/>
      </g>
      <g transform="translate(-199.838 -5599.574)">
        <line id="Line_2-136" data-name="Line 2" y2="200" transform="translate(1010.221 5599.896) rotate(-40)" fill="none" stroke="#fff" stroke-width="1" opacity="0.1"/>
      </g>
      <g transform="translate(-193.838 -5599.574)">
        <line id="Line_2-137" data-name="Line 2" y2="200" transform="translate(1010.221 5599.896) rotate(-40)" fill="none" stroke="#fff" stroke-width="1" opacity="0.1"/>
      </g>
      <g transform="translate(-187.838 -5599.574)">
        <line id="Line_2-138" data-name="Line 2" y2="200" transform="translate(1010.221 5599.896) rotate(-40)" fill="none" stroke="#fff" stroke-width="1" opacity="0.1"/>
      </g>
      <g transform="translate(-181.838 -5599.574)">
        <line id="Line_2-139" data-name="Line 2" y2="200" transform="translate(1010.221 5599.896) rotate(-40)" fill="none" stroke="#fff" stroke-width="1" opacity="0.1"/>
      </g>
      <g transform="translate(-175.838 -5599.574)">
        <line id="Line_2-140" data-name="Line 2" y2="200" transform="translate(1010.221 5599.896) rotate(-40)" fill="none" stroke="#fff" stroke-width="1" opacity="0.1"/>
      </g>
      <g transform="translate(-169.838 -5599.574)">
        <line id="Line_2-141" data-name="Line 2" y2="200" transform="translate(1010.221 5599.896) rotate(-40)" fill="none" stroke="#fff" stroke-width="1" opacity="0.1"/>
      </g>
      <g transform="translate(-163.838 -5599.574)">
        <line id="Line_2-142" data-name="Line 2" y2="200" transform="translate(1010.221 5599.896) rotate(-40)" fill="none" stroke="#fff" stroke-width="1" opacity="0.1"/>
      </g>
      <g transform="translate(-157.838 -5599.574)">
        <line id="Line_2-143" data-name="Line 2" y2="200" transform="translate(1010.221 5599.896) rotate(-40)" fill="none" stroke="#fff" stroke-width="1" opacity="0.1"/>
      </g>
      <g transform="translate(-151.838 -5599.574)">
        <line id="Line_2-144" data-name="Line 2" y2="200" transform="translate(1010.221 5599.896) rotate(-40)" fill="none" stroke="#fff" stroke-width="1" opacity="0.1"/>
      </g>
      <g transform="translate(-145.838 -5599.574)">
        <line id="Line_2-145" data-name="Line 2" y2="200" transform="translate(1010.221 5599.896) rotate(-40)" fill="none" stroke="#fff" stroke-width="1" opacity="0.1"/>
      </g>
      <g transform="translate(-139.838 -5599.574)">
        <line id="Line_2-146" data-name="Line 2" y2="200" transform="translate(1010.221 5599.896) rotate(-40)" fill="none" stroke="#fff" stroke-width="1" opacity="0.1"/>
      </g>
      <g transform="translate(-133.838 -5599.574)">
        <line id="Line_2-147" data-name="Line 2" y2="200" transform="translate(1010.221 5599.896) rotate(-40)" fill="none" stroke="#fff" stroke-width="1" opacity="0.1"/>
      </g>
      <g transform="translate(-127.838 -5599.574)">
        <line id="Line_2-148" data-name="Line 2" y2="200" transform="translate(1010.221 5599.896) rotate(-40)" fill="none" stroke="#fff" stroke-width="1" opacity="0.1"/>
      </g>
      <g transform="translate(-121.838 -5599.574)">
        <line id="Line_2-149" data-name="Line 2" y2="200" transform="translate(1010.221 5599.896) rotate(-40)" fill="none" stroke="#fff" stroke-width="1" opacity="0.1"/>
      </g>
      <g transform="translate(-115.838 -5599.574)">
        <line id="Line_2-150" data-name="Line 2" y2="200" transform="translate(1010.221 5599.896) rotate(-40)" fill="none" stroke="#fff" stroke-width="1" opacity="0.1"/>
      </g>
      <g transform="translate(-109.838 -5599.574)">
        <line id="Line_2-151" data-name="Line 2" y2="200" transform="translate(1010.221 5599.896) rotate(-40)" fill="none" stroke="#fff" stroke-width="1" opacity="0.1"/>
      </g>
      <g transform="translate(-103.838 -5599.574)">
        <line id="Line_2-152" data-name="Line 2" y2="200" transform="translate(1010.221 5599.896) rotate(-40)" fill="none" stroke="#fff" stroke-width="1" opacity="0.1"/>
      </g>
      <g transform="translate(-97.838 -5599.574)">
        <line id="Line_2-153" data-name="Line 2" y2="200" transform="translate(1010.221 5599.896) rotate(-40)" fill="none" stroke="#fff" stroke-width="1" opacity="0.1"/>
      </g>
      <g transform="translate(-91.838 -5599.574)">
        <line id="Line_2-154" data-name="Line 2" y2="200" transform="translate(1010.221 5599.896) rotate(-40)" fill="none" stroke="#fff" stroke-width="1" opacity="0.1"/>
      </g>
      <g transform="translate(-85.838 -5599.574)">
        <line id="Line_2-155" data-name="Line 2" y2="200" transform="translate(1010.221 5599.896) rotate(-40)" fill="none" stroke="#fff" stroke-width="1" opacity="0.1"/>
      </g>
      <g transform="translate(-79.838 -5599.574)">
        <line id="Line_2-156" data-name="Line 2" y2="200" transform="translate(1010.221 5599.896) rotate(-40)" fill="none" stroke="#fff" stroke-width="1" opacity="0.1"/>
      </g>
      <g transform="translate(-73.838 -5599.574)">
        <line id="Line_2-157" data-name="Line 2" y2="200" transform="translate(1010.221 5599.896) rotate(-40)" fill="none" stroke="#fff" stroke-width="1" opacity="0.1"/>
      </g>
      <g transform="translate(-67.838 -5599.574)">
        <line id="Line_2-158" data-name="Line 2" y2="200" transform="translate(1010.221 5599.896) rotate(-40)" fill="none" stroke="#fff" stroke-width="1" opacity="0.1"/>
      </g>
    </g>
  </g>
</svg>
