<svg xmlns="http://www.w3.org/2000/svg" width="40" height="40" viewBox="0 0 40 40">
  <path id="phone-call" d="M21.676,1.67A1.669,1.669,0,0,1,23.345,0,16.712,16.712,0,0,1,40.039,16.695a1.669,1.669,0,0,1-3.339,0A13.37,13.37,0,0,0,23.345,3.34,1.669,1.669,0,0,1,21.676,1.67Zm1.669,8.347a6.678,6.678,0,0,1,6.678,6.678,1.669,1.669,0,1,0,3.339,0A10.026,10.026,0,0,0,23.345,6.679a1.669,1.669,0,0,0,0,3.339Zm15.18,17.928a5.175,5.175,0,0,1,0,7.309L37.006,37C23.334,50.094-9.937,16.832,2.95,3.116L4.87,1.447a5.143,5.143,0,0,1,7.223.067c.052.052,3.145,4.07,3.145,4.07a5.175,5.175,0,0,1-.012,7.148l-1.933,2.431A21.336,21.336,0,0,0,24.864,26.756l2.446-1.945a5.175,5.175,0,0,1,7.147-.01S38.473,27.893,38.525,27.945Zm-2.3,2.427s-3.995-3.073-4.047-3.125a1.836,1.836,0,0,0-2.586,0c-.045.047-3.412,2.729-3.412,2.729a1.669,1.669,0,0,1-1.634.254,25.056,25.056,0,0,1-14.726-14.7,1.669,1.669,0,0,1,.242-1.669s2.683-3.369,2.728-3.412a1.836,1.836,0,0,0,0-2.586c-.052-.05-3.125-4.048-3.125-4.048a1.836,1.836,0,0,0-2.521.065L5.227,5.545C-4.191,16.87,24.641,44.1,34.565,34.724l1.521-1.753a1.871,1.871,0,0,0,.142-2.6Z" transform="translate(-0.039 0.001)" fill="#fff"/>
</svg>
