<svg xmlns="http://www.w3.org/2000/svg" width="80" height="62" viewBox="0 0 80 62">
  <path id="Path_3200" data-name="Path 3200" d="M45.846-165.3c.891-13.9-5.347-24.848-16.339-26.327-10.694-2.071-20.5,6.508-20.794,17.157A19.249,19.249,0,0,0,24.754-154.95c7.427,1.775,8.615,10.353-6.238,17.749-5.05,2.662-1.188,8.283,2.377,7.1C32.775-136.314,45.549-151.1,45.846-165.3Zm42.777,0c.891-13.311-5.644-24.848-16.339-26.327a17.944,17.944,0,0,0-21.092,17.157c-.3,9.762,7.427,18.044,16.041,19.523C74.958-153.175,76.146-144.6,61-137.2c-5.05,2.662-.891,8.283,2.377,7.1C74.958-136.314,87.732-151.1,88.623-165.3Z" transform="translate(-8.704 191.941)" fill="#be1614" opacity="0.15"/>
</svg>
