<svg xmlns="http://www.w3.org/2000/svg" width="15" height="14" viewBox="0 0 15 14">
  <path id="star_1_" data-name="star (1)" d="M14.961,5.782a.792.792,0,0,0-.686-.534L9.945,4.865,8.233.963a.806.806,0,0,0-1.466,0l-1.712,3.9-4.33.383a.793.793,0,0,0-.686.534.763.763,0,0,0,.233.825L3.545,9.4l-.965,4.14a.766.766,0,0,0,.31.8.81.81,0,0,0,.876.037L7.5,12.207l3.733,2.174a.812.812,0,0,0,.876-.037.767.767,0,0,0,.31-.8L11.455,9.4l3.273-2.795a.764.764,0,0,0,.234-.825Zm0,0" transform="translate(0 -0.491)" fill="#ffc107"/>
</svg>
